<?xml version="1.0" encoding="UTF-8" standalone="no"?>
<svg
   xmlns:dc="http://purl.org/dc/elements/1.1/"
   xmlns:cc="http://creativecommons.org/ns#"
   xmlns:rdf="http://www.w3.org/1999/02/22-rdf-syntax-ns#"
   xmlns:svg="http://www.w3.org/2000/svg"
   xmlns="http://www.w3.org/2000/svg"
   xmlns:sodipodi="http://sodipodi.sourceforge.net/DTD/sodipodi-0.dtd"
   xmlns:inkscape="http://www.inkscape.org/namespaces/inkscape"
   version="1.1"
   id="Layer_1"
   x="0px"
   y="0px"
   viewBox="188 251.8 415.8 110.5"
   enable-background="new 188 251.8 415.8 110.5"
   xml:space="preserve"
   sodipodi:docname="dart-logo.svg"
   inkscape:version="0.92.4 (5da689c313, 2019-01-14)"><metadata
   id="metadata905"><rdf:RDF><cc:Work
       rdf:about=""><dc:format>image/svg+xml</dc:format><dc:type
         rdf:resource="http://purl.org/dc/dcmitype/StillImage" /><dc:title /></cc:Work></rdf:RDF></metadata><defs
   id="defs903" /><sodipodi:namedview
   pagecolor="#ffffff"
   bordercolor="#666666"
   borderopacity="1"
   objecttolerance="10"
   gridtolerance="10"
   guidetolerance="10"
   inkscape:pageopacity="0"
   inkscape:pageshadow="2"
   inkscape:window-width="1410"
   inkscape:window-height="784"
   id="namedview901"
   showgrid="false"
   inkscape:zoom="1.2393674"
   inkscape:cx="208.90365"
   inkscape:cy="10.534265"
   inkscape:window-x="0"
   inkscape:window-y="0"
   inkscape:window-maximized="0"
   inkscape:current-layer="Layer_1" />









<g
   id="g917"
   transform="translate(0,12.423344)"
   inkscape:export-filename="/Users/cpkmanchee/Documents/Code/darts-site/app/static/favicon.ico.png"
   inkscape:export-xdpi="14.140032"
   inkscape:export-ydpi="14.140032"><path
     id="path888"
     d="m 217.7,281.7 -7.1,-7.1 v 51.2 l 0.1,2.4 c 0,1.1 0.2,2.4 0.6,3.7 l 56.2,19.8 14,-6.2 v 0 z"
     inkscape:connector-curvature="0"
     style="fill:#00c4b3" /><path
     id="path890"
     d="m 211.3,331.9 v 0 c 0,0 0,0 0,0 0,0 0,0 0,0 z m 70.2,13.6 -14,6.2 -56.1,-19.8 c 1.1,4.1 3.4,8.7 6,11.3 l 18.3,18.2 40.8,0.1 5,-16 z"
     inkscape:connector-curvature="0"
     style="fill:#22d3c5" /><path
     id="path892"
     d="m 210.8,274.6 -21.8,33 c -1.8,1.9 -0.9,5.9 2,8.9 l 12.6,12.7 7.9,2.8 c -0.3,-1.3 -0.6,-2.6 -0.6,-3.7 l -0.1,-2.4 v -51.3 z"
     inkscape:connector-curvature="0"
     style="fill:#0075c9" /><path
     id="path894"
     d="m 267.9,275.2 c -1.3,-0.3 -2.6,-0.5 -3.7,-0.6 l -2.5,-0.1 h -51.1 l 70.9,70.9 v 0 l 6.2,-14 z"
     inkscape:connector-curvature="0"
     style="fill:#0075c9" /><path
     id="path896"
     d="m 267.8,275.2 c 0.1,0 0.1,0 0,0 v 0 c 0.1,0 0.1,0 0,0 z m 11.4,6 c -2.6,-2.6 -7.1,-5 -11.3,-6 l 19.8,56.2 -6.2,14 v 0 l 15.2,-4.9 v -41.7 z"
     inkscape:connector-curvature="0"
     style="fill:#00a8e1" /><path
     id="path898"
     d="m 265.1,267.4 -12.7,-12.6 c -2.9,-2.9 -6.9,-3.8 -8.9,-2 l -33,21.8 h 51.1 l 2.5,0.1 c 1.1,0 2.4,0.2 3.7,0.6 z"
     inkscape:connector-curvature="0"
     style="fill:#00c4b3" /></g>
<text
   xml:space="preserve"
   style="font-style:normal;font-variant:normal;font-weight:normal;font-stretch:normal;font-size:53.33333206px;line-height:125%;font-family:Arial;-inkscape-font-specification:Arial;letter-spacing:0px;word-spacing:0px;fill:#231f20;fill-opacity:1;stroke:none;stroke-width:1px;stroke-linecap:butt;stroke-linejoin:miter;stroke-opacity:1"
   x="308.07388"
   y="356.67746"
   id="text909"><tspan
     sodipodi:role="line"
     id="tspan907"
     x="308.07388"
     y="356.67746"
     style="font-style:normal;font-variant:normal;font-weight:800;font-stretch:normal;font-size:128px;font-family:Raleway;-inkscape-font-specification:'Raleway Ultra-Bold';fill:#231f20;fill-opacity:1">ICC4</tspan></text>

</svg>