<?xml version="1.0" encoding="UTF-8" standalone="no"?>
<!-- Created with Inkscape (http://www.inkscape.org/) -->

<svg
   xmlns:dc="http://purl.org/dc/elements/1.1/"
   xmlns:cc="http://creativecommons.org/ns#"
   xmlns:rdf="http://www.w3.org/1999/02/22-rdf-syntax-ns#"
   xmlns:svg="http://www.w3.org/2000/svg"
   xmlns="http://www.w3.org/2000/svg"
   xmlns:sodipodi="http://sodipodi.sourceforge.net/DTD/sodipodi-0.dtd"
   xmlns:inkscape="http://www.inkscape.org/namespaces/inkscape"
   width="480"
   height="480"
   viewBox="0 0 127 127"
   version="1.1"
   id="svg1696"
   inkscape:version="0.92.4 (5da689c313, 2019-01-14)"
   sodipodi:docname="dart-icon.svg">
  <defs
     id="defs1690" />
  <sodipodi:namedview
     id="base"
     pagecolor="#ffffff"
     bordercolor="#666666"
     borderopacity="1.0"
     inkscape:pageopacity="0.0"
     inkscape:pageshadow="2"
     inkscape:zoom="0.9296875"
     inkscape:cx="431.19328"
     inkscape:cy="258.82353"
     inkscape:document-units="mm"
     inkscape:current-layer="layer1"
     showgrid="false"
     units="px"
     width="480px"
     inkscape:window-width="1440"
     inkscape:window-height="855"
     inkscape:window-x="0"
     inkscape:window-y="1"
     inkscape:window-maximized="1" />
  <metadata
     id="metadata1693">
    <rdf:RDF>
      <cc:Work
         rdf:about="">
        <dc:format>image/svg+xml</dc:format>
        <dc:type
           rdf:resource="http://purl.org/dc/dcmitype/StillImage" />
        <dc:title></dc:title>
      </cc:Work>
    </rdf:RDF>
  </metadata>
  <g
     inkscape:label="Layer 1"
     inkscape:groupmode="layer"
     id="layer1"
     transform="translate(0,-170)">
    <g
       id="g917"
       transform="matrix(1.1392686,0,0,1.1392686,-212.70553,-116.05374)"
       inkscape:export-filename="/Users/cpkmanchee/Documents/Code/darts-site/app/static/favicon.ico.png"
       inkscape:export-xdpi="14.140032"
       inkscape:export-ydpi="14.140032"
       style="stroke-width:0.23223965">
      <path
         id="path888"
         d="m 217.7,281.7 -7.1,-7.1 v 51.2 l 0.1,2.4 c 0,1.1 0.2,2.4 0.6,3.7 l 56.2,19.8 14,-6.2 v 0 z"
         inkscape:connector-curvature="0"
         style="fill:#00c4b3;stroke-width:0.23223965" />
      <path
         id="path890"
         d="m 211.3,331.9 v 0 c 0,0 0,0 0,0 0,0 0,0 0,0 z m 70.2,13.6 -14,6.2 -56.1,-19.8 c 1.1,4.1 3.4,8.7 6,11.3 l 18.3,18.2 40.8,0.1 z"
         inkscape:connector-curvature="0"
         style="fill:#22d3c5;stroke-width:0.23223965" />
      <path
         id="path892"
         d="m 210.8,274.6 -21.8,33 c -1.8,1.9 -0.9,5.9 2,8.9 l 12.6,12.7 7.9,2.8 c -0.3,-1.3 -0.6,-2.6 -0.6,-3.7 l -0.1,-2.4 z"
         inkscape:connector-curvature="0"
         style="fill:#0075c9;stroke-width:0.23223965" />
      <path
         id="path894"
         d="m 267.9,275.2 c -1.3,-0.3 -2.6,-0.5 -3.7,-0.6 l -2.5,-0.1 h -51.1 l 70.9,70.9 v 0 l 6.2,-14 z"
         inkscape:connector-curvature="0"
         style="fill:#0075c9;stroke-width:0.23223965" />
      <path
         id="path896"
         d="m 267.8,275.2 c 0.1,0 0.1,0 0,0 v 0 c 0.1,0 0.1,0 0,0 z m 11.4,6 c -2.6,-2.6 -7.1,-5 -11.3,-6 l 19.8,56.2 -6.2,14 v 0 l 15.2,-4.9 v -41.7 z"
         inkscape:connector-curvature="0"
         style="fill:#00a8e1;stroke-width:0.23223965" />
      <path
         id="path898"
         d="m 265.1,267.4 -12.7,-12.6 c -2.9,-2.9 -6.9,-3.8 -8.9,-2 l -33,21.8 h 51.1 l 2.5,0.1 c 1.1,0 2.4,0.2 3.7,0.6 z"
         inkscape:connector-curvature="0"
         style="fill:#00c4b3;stroke-width:0.23223965" />
    </g>
  </g>
</svg>
